<?xml version="1.0" encoding="UTF-8"?>
<svg width="101px" height="12px" viewBox="0 0 101 12" version="1.1" xmlns="http://www.w3.org/2000/svg" xmlns:xlink="http://www.w3.org/1999/xlink">
    <!-- Generator: Sketch 63.1 (92452) - https://sketch.com -->
    <title>bt_failfast</title>
    <desc>Created with Sketch.</desc>
    <g id="Page-1" stroke="none" stroke-width="1" fill="none" fill-rule="evenodd">
        <g id="01_LANDING" transform="translate(-40.000000, -788.000000)" fill="#F5ABF9">
            <g id="FAILFAST" transform="translate(40.000000, 788.000000)">
                <g id="Combined-Shape">
                    <path d="M83.6131153,1.77635684e-15 C85.3560277,1.77635684e-15 86.6967088,0.883501443 87.1990595,1.25010623 C87.4005124,1.36671661 87.3671843,1.66689777 87.2998534,1.78337396 L86.4453311,3.06662492 C86.3279406,3.2500615 86.0263683,3.40021918 85.8756496,3.2834746 C85.7243912,3.20000895 84.5009657,2.28349697 83.4789932,2.28349697 C82.8754439,2.28349697 82.4231529,2.68338067 82.4231529,3.13358531 C82.4231529,3.75018451 82.9260432,4.21676023 84.249588,4.75016215 C85.556941,5.26679042 87.6352936,6.28340751 87.6352936,8.55013083 C87.6352936,10.2666786 86.1437588,12 83.6799065,12 C81.5014346,12 80.2947407,11.1001275 79.9092409,10.716749 C79.7417907,10.5500861 79.6911913,10.4833941 79.8253134,10.2500391 L80.6130445,8.86681726 C80.7470317,8.64996757 81.0657403,8.68338067 81.1831308,8.76671214 C81.2500569,8.79985686 82.456616,9.68335831 83.5625159,9.68335831 C84.2328565,9.68335831 84.7191502,9.26683515 84.7191502,8.68338067 C84.7191502,7.98331581 84.1327372,7.45004808 82.9929694,7.00011182 C81.5514943,6.43343099 79.7417907,5.31670879 79.7417907,3.31675352 C79.7417907,1.66689777 81.0318724,1.77635684e-15 83.6131153,1.77635684e-15 Z M69.9070933,0.0550712321 C70.0244839,0.0550712321 70.1418744,0.138536891 70.1919341,0.238373627 L70.1919341,0.238373627 L75.4374029,11.4552457 C75.5380619,11.671827 75.4040747,11.8885425 75.1525621,11.8885425 L75.1525621,11.8885425 L73.2923941,11.8885425 C72.9906868,11.8885425 72.8566997,11.7883032 72.7058461,11.4718851 L72.7058461,11.4718851 L69.8237056,5.13855926 L69.8065692,5.13855926 L66.9407554,11.4885246 C66.8568279,11.6884664 66.6726462,11.8885425 66.3377458,11.8885425 L66.3377458,11.8885425 L64.4940394,11.8885425 C64.2426617,11.8885425 64.1086745,11.671827 64.2093336,11.4552457 L64.2093336,11.4552457 L69.4548024,0.238373627 C69.504862,0.138536891 69.6222526,0.0550712321 69.7395082,0.0550712321 L69.7395082,0.0550712321 Z M7.25689523,0.166864223 C7.44107696,0.166864223 7.57533397,0.316753517 7.57533397,0.483550645 L7.57533397,2.30020352 C7.57533397,2.46700065 7.44107696,2.61688994 7.25689523,2.61688994 L2.61457102,2.61688994 L2.61457102,5.0168631 L6.43529627,5.0168631 C6.6032862,5.0168631 6.75413981,5.16688659 6.75413981,5.33341534 L6.75413981,7.1502024 C6.75413981,7.31673115 6.6032862,7.46675464 6.43529627,7.46675464 L2.61457102,7.46675464 L2.61457102,11.5168519 C2.61457102,11.6835149 2.46385235,11.8335383 2.29640214,11.8335383 L0.318708611,11.8335383 C0.133987151,11.8335383 0,11.6835149 0,11.5168519 L0,0.483550645 C0,0.316753517 0.133987151,0.166864223 0.318708611,0.166864223 L7.25689523,0.166864223 Z M31.6611638,0.166864223 C31.828614,0.166864223 31.9794676,0.316753517 31.9794676,0.483550645 L31.9794676,11.5168519 C31.9794676,11.6835149 31.828614,11.8335383 31.6611638,11.8335383 L29.6500072,11.8335383 C29.482557,11.8335383 29.3314335,11.6835149 29.3314335,11.5168519 L29.3314335,0.483550645 C29.3314335,0.316753517 29.482557,0.166864223 29.6500072,0.166864223 L31.6611638,0.166864223 Z M42.0068879,0.166864223 C42.1743381,0.166864223 42.3255965,0.316753517 42.3255965,0.483550645 L42.3255965,9.38351262 L46.8536336,9.38351262 C47.0382201,9.38351262 47.1722073,9.53353611 47.1722073,9.70019905 L47.1722073,11.5168519 C47.1722073,11.6835149 47.0382201,11.8335383 46.8536336,11.8335383 L40.0124628,11.8335383 C39.8282811,11.8335383 39.694159,11.6835149 39.694159,11.5168519 L39.694159,0.483550645 C39.694159,0.316753517 39.8282811,0.166864223 40.0124628,0.166864223 L42.0068879,0.166864223 Z M60.2899733,0.166756872 C60.474155,0.166756872 60.608412,0.316780355 60.608412,0.483443294 L60.608412,2.30009617 C60.608412,2.46675911 60.474155,2.61678259 60.2899733,2.61678259 L55.6476491,2.61678259 L55.6476491,5.01675575 L59.4683743,5.01675575 C59.6363643,5.01675575 59.7872179,5.16664505 59.7872179,5.33330799 L59.7872179,7.15022924 C59.7872179,7.31675799 59.6363643,7.46664728 59.4683743,7.46664728 L55.6476491,7.46664728 L55.6476491,11.5167446 C55.6476491,11.6834075 55.4969304,11.833431 55.3294802,11.833431 L53.3517867,11.833431 C53.1670652,11.833431 53.0330781,11.6834075 53.0330781,11.5167446 L53.0330781,0.483443294 C53.0330781,0.316780355 53.1670652,0.166756872 53.3517867,0.166756872 L60.2899733,0.166756872 Z M99.9169903,0.166689777 C100.101172,0.166689777 100.235294,0.31671326 100.235294,0.483510388 L100.235294,2.30016326 C100.235294,2.4668262 100.101172,2.61684969 99.9169903,2.61684969 L97.5204689,2.61684969 L97.5204689,11.5166775 C97.5204689,11.6833404 97.3697502,11.8334981 97.2023,11.8334981 L95.1911434,11.8334981 C95.0231535,11.8334981 94.8724348,11.6833404 94.8724348,11.5166775 L94.8724348,2.61684969 L92.4757784,2.61684969 C92.2917316,2.61684969 92.1576095,2.4668262 92.1576095,2.30016326 L92.1576095,0.483510388 C92.1576095,0.31671326 92.2917316,0.166689777 92.4757784,0.166689777 L99.9169903,0.166689777 Z M16.8740153,0 C16.9914058,0 17.1087964,0.0835998479 17.158856,0.183436584 L17.158856,0.183436584 L22.4043248,11.4003086 C22.5049838,11.6168899 22.3709967,11.8334712 22.1194841,11.8334712 L22.1194841,11.8334712 L20.259316,11.8334712 C19.9576088,11.8334712 19.8236216,11.7333661 19.672768,11.4169481 L19.672768,11.4169481 L16.7906275,5.08362221 L16.7734912,5.08362221 L13.9076774,11.4335875 C13.8237499,11.6335294 13.6395681,11.8334712 13.3046677,11.8334712 L13.3046677,11.8334712 L11.4609614,11.8334712 C11.2095836,11.8334712 11.0755965,11.6168899 11.1762555,11.4003086 L11.1762555,11.4003086 L16.4217243,0.183436584 C16.471784,0.0835998479 16.5891745,0 16.7064301,0 L16.7064301,0 Z"></path>
                </g>
            </g>
        </g>
    </g>
</svg>