<?xml version="1.0" encoding="UTF-8"?>
<svg width="70px" height="70px" viewBox="0 0 70 70" version="1.1" xmlns="http://www.w3.org/2000/svg" xmlns:xlink="http://www.w3.org/1999/xlink">
    <!-- Generator: Sketch 63.1 (92452) - https://sketch.com -->
    <title>ic_outdated</title>
    <desc>Created with Sketch.</desc>
    <defs>
        <polygon id="path-1" points="0 0.0394941634 69.7370568 0.0394941634 69.7370568 69.7276265 0 69.7276265"></polygon>
    </defs>
    <g id="Page-1" stroke="none" stroke-width="1" fill="none" fill-rule="evenodd">
        <g id="06_OUTDATED_browser" transform="translate(-299.000000, -195.000000)">
            <g id="Group-14" transform="translate(299.000000, 195.000000)">
                <g id="Group-3" stroke-width="1" transform="translate(0.000000, 0.232879)">
                    <mask id="mask-2" fill="white">
                        <use xlink:href="#path-1"></use>
                    </mask>
                    <g id="Clip-2"></g>
                    <path d="M34.8673268,65.367607 C42.1301673,65.367607 49.3930078,65.3787743 56.6555759,65.3637938 C61.8630856,65.3528988 65.3557315,61.8934825 65.3674436,56.7099416 C65.3875992,47.9781907 65.3884163,39.2467121 65.3663541,30.5152335 C65.3532802,25.3041829 61.8990389,21.8371401 56.6909844,21.8303307 C42.0974825,21.8112646 27.5037082,21.813716 12.9102062,21.8295136 C7.90016732,21.8349611 4.38001167,25.3668288 4.37020623,30.3779572 C4.35277432,39.1549222 4.35468093,47.9316148 4.36857198,56.7085798 C4.37701556,61.8795914 7.89172374,65.3616148 13.0790778,65.3659728 C20.3419183,65.3722374 27.6044864,65.367607 34.8673268,65.367607 L34.8673268,65.367607 Z M30.0430467,17.4644553 C29.4936693,16.8281907 29.0447977,16.3014202 28.5888444,15.780642 C25.1073658,11.8045331 21.6231634,7.83060311 18.1425019,3.85367704 C17.1834747,2.75764591 17.2009066,1.45678988 18.1754591,0.593638132 C19.1415681,-0.262159533 20.4593113,-0.119435798 21.41507,0.970603113 C25.6774436,5.83083658 29.9335525,10.6965175 34.1921128,15.5600195 C34.398572,15.7956226 34.6074825,16.0293191 34.863786,16.3188521 C35.3336304,15.7907198 35.7688833,15.3078016 36.1967821,14.8188911 C40.1410233,10.3132879 44.0844475,5.80659533 48.0278716,1.3001751 C48.1626965,1.14655642 48.2945253,0.990758755 48.4342529,0.841770428 C49.3270934,-0.111809339 50.6143307,-0.22348249 51.5371323,0.570758755 C52.4926187,1.3927821 52.5756926,2.71324903 51.7021907,3.72321012 C50.1739027,5.49036965 48.6279105,7.24200389 47.0887276,8.99963035 C44.7730078,11.6451946 42.4567432,14.290214 40.1418405,16.936323 C40.0260817,17.0686965 39.9228521,17.2116926 39.7223852,17.465 L40.6097782,17.465 C45.8292724,17.4641829 51.0490389,17.4611868 56.2688054,17.4630934 C62.791607,17.4655447 68.222463,21.8899805 69.5099728,28.2768677 C69.6611401,29.0267121 69.7235136,29.8062451 69.7246031,30.5721595 C69.7390389,39.2581518 69.7401284,47.9435992 69.7319572,56.6293191 C69.7251479,63.7050389 63.6912568,69.7201362 56.5970156,69.7231323 C42.1179105,69.7293969 27.6388054,69.7288521 13.159428,69.7234047 C6.02215175,69.7206809 0.0103229572,63.7126654 0.00514785992,56.5808366 C-0.00138910506,47.9179961 -0.00220622568,39.2551556 0.00514785992,30.5920428 C0.0111400778,23.4738327 6.05756031,17.458463 13.1771323,17.4639105 C18.5782996,17.4685409 23.9794669,17.4647276 29.3809066,17.4644553 L30.0430467,17.4644553 Z" id="Fill-1" fill="#F5ABF9" mask="url(#mask-2)"></path>
                </g>
                <path d="M24.0402062,26.4074047 C26.1954981,26.4079494 28.3510623,26.407677 30.5063541,26.407677 C34.8172101,26.407677 39.1283385,26.4038638 43.4391946,26.4084942 C48.2836304,26.4139416 52.3133969,30.4684942 52.3057812,35.3047588 C52.2970545,40.9725798 52.3033191,46.6404008 52.3019572,52.3084942 C52.3005953,57.2482607 48.2939805,61.2475214 43.3454981,61.2483385 C34.8370934,61.2497004 26.3286887,61.2521518 17.8205564,61.2505175 C12.6710623,61.249428 8.72573152,57.3193502 8.72028405,52.1810233 C8.71429183,46.5358093 8.71374708,40.8905953 8.71810506,35.2451089 C8.72191829,30.4458872 12.7674825,26.4114903 17.5740584,26.4054981 C19.7293502,26.4027743 21.884642,26.4071323 24.0402062,26.4074047 Z" id="Combined-Shape" fill="#FAD5FC"></path>
                <path d="M58.8787704,28.5832335 C60.9844903,28.6039339 63.2209494,30.8826109 63.1958911,32.9817938 C63.1705603,35.0945953 60.9076809,37.3133502 58.7956965,37.296463 C56.6921556,37.2795759 54.4494319,34.9970856 54.4763969,32.9003541 C54.5033619,30.7913658 56.7760467,28.5625331 58.8787704,28.5832335" id="Fill-6" fill="#F5ABF9"></path>
                <path d="M58.8343463,43.8292335 C58.1092879,43.8295058 57.3839572,43.8450311 56.6594436,43.825965 C55.3939961,43.7932802 54.4657471,42.8407899 54.4785486,41.61293 C54.4905331,40.4343696 55.440572,39.4889611 56.6640739,39.4758872 C58.1139183,39.4598171 59.5645798,39.4587276 61.0144241,39.4769767 C62.2420117,39.4919572 63.1800661,40.4311012 63.1961362,41.6183774 C63.2119339,42.8361595 62.2676148,43.7987276 61.0095214,43.8262374 C60.2847354,43.842035 59.5594047,43.8289611 58.8343463,43.8292335" id="Fill-8" fill="#F5ABF9"></path>
                <path d="M58.7739611,50.3614047 C58.0717821,50.3608599 57.3690584,50.372572 56.6668794,50.3581362 C55.4101479,50.3325331 54.4641946,49.3713268 54.4789027,48.1538171 C54.4933385,46.9662685 55.4297588,46.0254903 56.6589805,46.0091479 C58.1088249,45.9892646 59.5594864,45.9870856 61.0090584,46.0091479 C62.2764125,46.0279416 63.2060233,46.9866965 63.1962947,48.2140117 C63.1869572,49.419537 62.2230272,50.3447899 60.9491362,50.3600428 C60.2240778,50.3687588 59.4990195,50.361677 58.7739611,50.3614047" id="Fill-10" fill="#F5ABF9"></path>
                <path d="M58.8747665,52.5369339 C59.5998249,52.5369339 60.3251556,52.5203191 61.0493969,52.5407471 C62.269358,52.5747938 63.1995136,53.5300078 63.1954414,54.7175564 C63.1916148,55.9113696 62.2674514,56.866856 61.0425875,56.8870117 C59.5704086,56.9109805 58.0974125,56.9112529 56.6249611,56.887284 C55.407179,56.8671284 54.4732101,55.8963891 54.47647,54.7115642 C54.4797471,53.5248327 55.4120817,52.57207 56.6320428,52.5382957 C57.3791634,52.5175953 58.1271012,52.5342101 58.8747665,52.5342101 L58.8747665,52.5369339 Z" id="Fill-12" fill="#F5ABF9"></path>
            </g>
        </g>
    </g>
</svg>