<?xml version="1.0" encoding="UTF-8"?>
<svg width="75px" height="58px" viewBox="0 0 75 58" version="1.1" xmlns="http://www.w3.org/2000/svg" xmlns:xlink="http://www.w3.org/1999/xlink">
    <!-- Generator: Sketch 63.1 (92452) - https://sketch.com -->
    <title>ic_turndevice</title>
    <desc>Created with Sketch.</desc>
    <defs>
        <polygon id="path-1" points="1.32572622e-13 0.000105884697 36.6689521 0.000105884697 36.6689521 58.0248416 1.32572622e-13 58.0248416"></polygon>
        <polygon id="path-3" points="1.32572622e-13 0.000105884697 36.6689521 0.000105884697 36.6689521 58.0248416 1.32572622e-13 58.0248416"></polygon>
    </defs>
    <g id="Page-1" stroke="none" stroke-width="1" fill="none" fill-rule="evenodd">
        <g id="05_TURNDEVICE" transform="translate(-295.000000, -206.000000)">
            <g id="ic_turndevice" transform="translate(295.000000, 205.000000)">
                <g id="Group-3">
                    <g id="Clip-2" transform="translate(37.542618, 0.967742)">
                        <mask id="mask-2" fill="white">
                            <use xlink:href="#path-1"></use>
                        </mask>
                        <g></g>
                        <path d="M29.54243,47.4263132 L7.15462311,47.4263132 C6.12254455,47.4263132 5.28588334,46.5842541 5.28588334,45.545517 L5.28588334,8.56039689 C5.28588334,7.52165976 6.12254455,6.67960074 7.15462311,6.67960074 L29.54243,6.67960074 C30.5745085,6.67960074 31.4111698,7.52165976 31.4111698,8.56039689 L31.4111698,45.545517 C31.4111698,46.5842541 30.5745085,47.4263132 29.54243,47.4263132 L29.54243,47.4263132 Z M36.5666526,4.26782311 C36.0344103,1.68358152 33.9690257,0.00934679067 31.1956215,0.00292263144 C22.6861288,-0.0161027632 14.1761452,0.0664229746 5.66689807,0.00292263144 C2.24120249,-0.0225269224 -0.0110070035,2.56838591 9.41963365e-14,5.68410314 C0.0557687739,21.2688664 0.0240993795,36.8538766 0.0265543713,52.439134 C0.0272908689,55.7945218 2.23040053,58.0229638 5.55519594,58.0249405 L32.6639521,58.0249405 C35.1201714,57.4289762 36.6668162,55.2121471 36.6690257,52.557981 L36.5666526,4.26782311 Z" id="Fill-1" fill="#F5ABF9" fill-rule="evenodd" mask="url(#mask-2)"></path>
                    </g>
                    <g id="Clip-2" opacity="0.5" transform="translate(29.031980, 40.645161) rotate(-90.000000) translate(-29.031980, -40.645161) translate(10.619541, 11.612903)">
                        <mask id="mask-4" fill="white">
                            <use xlink:href="#path-3"></use>
                        </mask>
                        <g></g>
                        <path d="M29.54243,47.4263132 L7.15462311,47.4263132 C6.12254455,47.4263132 5.28588334,46.5842541 5.28588334,45.545517 L5.28588334,8.56039689 C5.28588334,7.52165976 6.12254455,6.67960074 7.15462311,6.67960074 L29.54243,6.67960074 C30.5745085,6.67960074 31.4111698,7.52165976 31.4111698,8.56039689 L31.4111698,45.545517 C31.4111698,46.5842541 30.5745085,47.4263132 29.54243,47.4263132 L29.54243,47.4263132 Z M36.5666526,4.26782311 C36.0344103,1.68358152 33.9690257,0.00934679067 31.1956215,0.00292263144 C22.6861288,-0.0161027632 14.1761452,0.0664229746 5.66689807,0.00292263144 C2.24120249,-0.0225269224 -0.0110070035,2.56838591 9.41963365e-14,5.68410314 C0.0557687739,21.2688664 0.0240993795,36.8538766 0.0265543713,52.439134 C0.0272908689,55.7945218 2.23040053,58.0229638 5.55519594,58.0249405 L32.6639521,58.0249405 C35.1201714,57.4289762 36.6668162,55.2121471 36.6690257,52.557981 L36.5666526,4.26782311 Z" id="Fill-1" fill="#F5ABF9" fill-rule="evenodd" mask="url(#mask-4)"></path>
                    </g>
                    <path d="M23.0985241,12.0153659 C21.9364657,12.0149766 21.2177025,11.3239249 21.975021,9.13270384 L23.6698657,5.12023609 C24.8733868,2.6661143 25.9854214,1.43922434 27.0059696,1.43956621 L27.4769211,1.43972406 C28.4972649,1.44006591 29.6003036,2.66769797 30.7860374,5.12262024 L32.5127522,9.13623433 C33.2592816,11.2975136 32.5740868,12.0185406 31.4121818,12.0181515 L31.0653259,12.0180351 C29.774729,12.0176027 29.3679521,11.5093291 28.7016123,9.99078354 L27.2380044,6.68298659 L25.8075671,9.96911069 C25.1394899,11.4774668 24.7192776,12.015909 23.4449203,12.015482 L23.0985241,12.0153659 Z" id="^-copy" fill="#F5ABF9" fill-rule="nonzero" transform="translate(27.243799, 6.728859) rotate(87.000000) translate(-27.243799, -6.728859) "></path>
                    <path d="M27.7545733,5.77273639 C21.7314846,6.81730253 17.4071961,8.16829178 14.7817079,9.82570414 C12.1562197,11.4831165 10.7546247,12.6405775 10.5769231,13.2980871" id="Path-2" stroke="#F5ABF9" stroke-width="5" stroke-linecap="round" stroke-linejoin="round"></path>
                </g>
            </g>
        </g>
    </g>
</svg>