<?xml version="1.0" encoding="UTF-8"?>
<svg width="495px" height="412px" viewBox="0 0 495 412" version="1.1" xmlns="http://www.w3.org/2000/svg" xmlns:xlink="http://www.w3.org/1999/xlink">
    <!-- Generator: Sketch 63.1 (92452) - https://sketch.com -->
    <title>img_title</title>
    <desc>Created with Sketch.</desc>
    <defs>
        <polygon id="path-1" points="0.144201993 0.142190283 89.9779875 0.142190283 89.9779875 89.8547611 0.144201993 89.8547611"></polygon>
        <polygon id="path-3" points="0.370297986 0.401568826 451.640657 0.401568826 451.640657 344.30127 0.370297986 344.30127"></polygon>
    </defs>
    <g id="Page-1" stroke="none" stroke-width="1" fill="none" fill-rule="evenodd">
        <g id="01_LANDING" transform="translate(-386.000000, -86.000000)">
            <g id="img_title" transform="translate(386.000000, 73.000000)">
                <g id="Group-9-Copy-2">
                    <g id="Group" transform="translate(99.602589, 260.000000)" fill="#CEF4EB">
                        <g id="Group-7">
                            <g id="Group-5" transform="translate(0.000000, 26.460225)">
                                <path d="M204.860422,67.7381759 C204.860422,105.149257 174.33166,135.476352 136.674176,135.476352 C99.0166933,135.476352 68.488993,105.149257 68.488993,67.7381759 C68.488993,30.327095 99.0166933,0 136.674176,0 C174.33166,0 204.860422,30.327095 204.860422,67.7381759" id="Fill-1"></path>
                                <path d="M48.4032787,69.3257894 C48.4032787,82.4781225 37.7537106,93.1399919 24.6173792,93.1399919 C11.4810479,93.1399919 0.831850117,82.4781225 0.831850117,69.3257894 C0.831850117,56.1734563 11.4810479,45.5115869 24.6173792,45.5115869 C37.7537106,45.5115869 48.4032787,56.1734563 48.4032787,69.3257894" id="Fill-1-Copy"></path>
                                <path d="M109.717564,67.7381759 C109.717564,91.1201015 90.5483418,110.074536 66.9029454,110.074536 C43.257549,110.074536 24.088993,91.1201015 24.088993,67.7381759 C24.088993,44.3562504 43.257549,25.401816 66.9029454,25.401816 C90.5483418,25.401816 109.717564,44.3562504 109.717564,67.7381759" id="Fill-1-Copy-2"></path>
                            </g>
                            <g id="Group-5" transform="translate(186.582382, 82.500000) scale(-1, 1) translate(-186.582382, -82.500000) translate(77.615349, 0.000000)">
                                <path d="M204.860422,95.7860144 C204.860422,133.489369 174.33166,164.053395 136.674176,164.053395 C99.0166933,164.053395 68.488993,133.489369 68.488993,95.7860144 C68.488993,58.0826594 99.0166933,27.518634 136.674176,27.518634 C174.33166,27.518634 204.860422,58.0826594 204.860422,95.7860144" id="Fill-1"></path>
                                <path d="M217.546136,68.2673804 C217.546136,105.970735 187.017374,136.534761 149.359891,136.534761 C111.702408,136.534761 81.1747073,105.970735 81.1747073,68.2673804 C81.1747073,30.5640255 111.702408,0 149.359891,0 C187.017374,0 217.546136,30.5640255 217.546136,68.2673804" id="Fill-1-Copy-3"></path>
                                <path d="M48.4032787,96.8444234 C48.4032787,109.996756 37.7537106,120.658626 24.6173792,120.658626 C11.4810479,120.658626 0.831850117,109.996756 0.831850117,96.8444234 C0.831850117,83.6920902 11.4810479,73.0302209 24.6173792,73.0302209 C37.7537106,73.0302209 48.4032787,83.6920902 48.4032787,96.8444234" id="Fill-1-Copy"></path>
                                <path d="M109.717564,95.2568099 C109.717564,118.638735 90.7849989,137.59317 67.4315209,137.59317 C44.078043,137.59317 25.1461358,118.638735 25.1461358,95.2568099 C25.1461358,71.8748843 44.078043,52.9204499 67.4315209,52.9204499 C90.7849989,52.9204499 109.717564,71.8748843 109.717564,95.2568099" id="Fill-1-Copy-2"></path>
                            </g>
                        </g>
                    </g>
                    <g id="Group-2" transform="translate(85.602589, 0.000000)" fill="#CEF4EB">
                        <path d="M146.725837,86.1675786 C146.898451,119.554859 119.918437,146.479449 86.4649307,146.306812 C53.0114241,146.132507 25.7511487,118.926656 25.5768719,85.5393753 C25.4042583,52.1520946 52.3833287,25.2274996 85.8368353,25.4001375 C119.290342,25.5744425 146.55156,52.7802978 146.725837,86.1675786" id="Fill-1" transform="translate(86.151355, 85.853475) rotate(50.000000) translate(-86.151355, -85.853475) "></path>
                        <path d="M175.470496,76.2446761 C175.565226,94.5675179 160.760307,109.34266 142.400745,109.247915 C124.041184,109.152255 109.081951,94.2227723 108.986308,75.8999304 C108.891578,57.5770885 123.696498,42.8019463 142.056059,42.8966914 C160.41562,42.9923515 175.374854,57.9218342 175.470496,76.2446761" id="Fill-3" transform="translate(142.228402, 76.072303) rotate(50.000000) translate(-142.228402, -76.072303) "></path>
                        <path d="M145.164418,25.114388 C145.195997,31.2224885 140.260472,36.1474529 134.141984,36.1158782 C128.021868,36.0839902 123.034905,31.1075733 123.003022,24.9994727 C122.971447,18.892185 127.906972,13.9672206 134.027088,13.9988037 C140.145576,14.0306833 145.132539,19.0071002 145.164418,25.114388" id="Fill-5" transform="translate(134.083720, 25.057341) rotate(50.000000) translate(-134.083720, -25.057341) "></path>
                    </g>
                    <g id="Group-3" transform="translate(0.602589, 32.000000)">
                        <g id="dailytoast2" transform="translate(0.000000, 0.000000)">
                            <g id="Group-52">
                                <g id="Group-51">
                                    <g id="Group-19" transform="translate(0.000000, 0.296812)">
                                        <path d="M89.8339953,249.623982 C89.8339953,274.397636 69.723342,294.480267 44.916683,294.480267 C20.1100239,294.480267 6.99330713e-05,274.397636 6.99330713e-05,249.623982 C6.99330713e-05,224.850328 20.1100239,204.767696 44.916683,204.767696 C69.723342,204.767696 89.8339953,224.850328 89.8339953,249.623982" id="Fill-1" fill="#CEF4EB"></path>
                                        <path d="M97.6707652,294.479918 C97.6707652,310.294048 84.83455,323.112823 68.9989053,323.112823 C53.1632607,323.112823 40.3270454,310.294048 40.3270454,294.479918 C40.3270454,278.665788 53.1632607,265.847013 68.9989053,265.847013 C84.83455,265.847013 97.6707652,278.665788 97.6707652,294.479918" id="Fill-3" fill="#CEF4EB"></path>
                                        <path d="M37.0727799,306.775257 C37.0727799,312.023587 32.8124572,316.277423 27.5583855,316.277423 C22.3029152,316.277423 18.0425925,312.023587 18.0425925,306.775257 C18.0425925,301.527626 22.3029152,297.273789 27.5583855,297.273789 C32.8124572,297.273789 37.0727799,301.527626 37.0727799,306.775257" id="Fill-5" fill="#CEF4EB"></path>
                                        <g id="Group-9" transform="translate(404.213152, 204.625506)">
                                            <mask id="mask-2" fill="white">
                                                <use xlink:href="#path-1"></use>
                                            </mask>
                                            <g id="Clip-8"></g>
                                            <path d="M0.144201993,44.9984757 C0.144201993,69.7721296 20.2548553,89.8547611 45.0615144,89.8547611 C69.8681734,89.8547611 89.9781274,69.7721296 89.9781274,44.9984757 C89.9781274,20.2248219 69.8681734,0.142190283 45.0615144,0.142190283 C20.2548553,0.142190283 0.144201993,20.2248219 0.144201993,44.9984757" id="Fill-7" fill="#CEF4EB" mask="url(#mask-2)"></path>
                                        </g>
                                        <path d="M396.520584,294.479918 C396.520584,310.294048 409.356799,323.112823 425.192444,323.112823 C441.028089,323.112823 453.864304,310.294048 453.864304,294.479918 C453.864304,278.665788 441.028089,265.847013 425.192444,265.847013 C409.356799,265.847013 396.520584,278.665788 396.520584,294.479918" id="Fill-10" fill="#CEF4EB"></path>
                                        <path d="M457.11857,306.775257 C457.11857,312.023587 461.378892,316.277423 466.632964,316.277423 C471.888434,316.277423 476.148757,312.023587 476.148757,306.775257 C476.148757,301.527626 471.888434,297.273789 466.632964,297.273789 C461.378892,297.273789 457.11857,301.527626 457.11857,306.775257" id="Fill-12" fill="#CEF4EB"></path>
                                        <path d="M353.810919,175.045248 C353.838193,175.019408 353.866866,174.995663 353.894139,174.969823 C353.936099,175.009631 353.979458,175.04874 354.022117,175.088548 C353.951485,175.07458 353.882251,175.059216 353.810919,175.045248 Z" id="Stroke-14" stroke="#65BFB5"></path>
                                        <g id="Group-18" transform="translate(22.378583, 0.000000)">
                                            <mask id="mask-4" fill="white">
                                                <use xlink:href="#path-3"></use>
                                            </mask>
                                            <g id="Clip-17"></g>
                                            <path d="M331.432336,175.045248 C331.45961,175.019408 331.488283,174.995663 331.515557,174.969823 C331.557516,175.009631 331.600875,175.04874 331.643534,175.088548 C331.572902,175.07458 331.503668,175.059216 331.432336,175.045248 M445.283376,184.365137 L445.276383,184.356756 C444.37075,183.214904 443.459522,182.244155 442.504236,181.397019 C439.183115,178.447758 435.0186,176.57959 430.458964,175.99295 C425.725194,175.384661 420.77673,175.786928 415.324748,177.223497 C413.24354,177.771726 412.349096,177.681635 411.857466,177.564307 C406.599898,176.321189 401.290579,175.155592 396.155394,174.029104 L392.04193,173.124003 C390.787331,172.848143 389.536229,172.554124 388.285126,172.260805 C384.349293,171.337546 379.985469,170.323497 375.326528,169.756412 C377.540609,166.700997 379.007105,163.693072 380.030925,161.366766 C381.648477,157.689094 382.887691,153.676199 383.930394,148.73795 C384.922744,144.041341 385.369616,139.575896 385.802502,135.25711 C385.896212,134.320582 385.989922,133.383355 386.089927,132.444033 L386.108809,132.265946 C386.154965,131.831554 386.199722,131.40624 386.245878,130.9921 C391.340502,129.722444 396.109238,127.568639 400.437396,124.580967 C407.383848,119.786584 411.602211,113.559124 415.12404,107.544671 C422.499881,94.9500759 424.364996,81.4790132 425.130064,72.3826063 L425.739181,64.7702581 C425.852472,63.3532439 425.958771,62.0898735 426.116819,60.9633856 C427.20288,53.1987905 426.420329,45.5633957 423.789447,38.267414 C419.652906,26.7979099 409.180428,19.5794484 397.094595,19.8525152 C383.803115,20.1653897 373.049507,26.1302581 369.231161,43.7350354 L369.110876,39.1599443 C368.222726,27.6611083 361.818955,18.9613816 351.541591,15.2913917 C345.865123,13.2646913 339.695628,13.0258451 333.703762,14.5999949 C328.981881,15.8389221 324.81457,18.0513917 321.353582,21.0844585 C320.115767,16.5659362 318.056238,12.6165941 315.20087,9.33839575 C311.548965,5.14671559 304.964067,0.17284919 294.194374,0.409600202 C284.370177,0.607241903 275.922262,5.75290992 271.208073,13.4546508 C267.38763,9.4298836 262.157335,6.42405364 255.660553,4.67391194 C247.490272,2.4726164 239.007391,3.77160425 231.774912,8.33202935 C224.178782,13.1215233 218.903031,20.8861184 217.300165,29.6340334 C215.820381,37.7122014 217.592485,45.8818573 222.291289,52.6372925 C222.579413,53.0514322 222.876628,53.4571913 223.182935,53.8552682 C221.410831,56.1920496 219.993987,58.879418 219.006532,61.8943269 C218.163139,64.4713512 217.55612,67.2159868 217.172188,70.0556022 L215.966542,65.814337 C213.937783,58.6824747 211.440473,51.9186589 208.542447,45.7072621 C208.37181,45.3413107 208.199775,44.9767561 208.02704,44.6135982 C205.238109,38.7534868 201.123247,33.600835 196.126529,29.712252 C189.76192,24.7600354 182.958831,22.4986791 175.934754,22.9833553 C175.68789,22.9924342 175.438229,22.9826569 175.189267,22.9798634 C174.546582,22.9693877 173.904596,22.9658957 173.260513,22.9854504 C166.671419,23.1761083 160.688645,25.1713816 155.477232,28.9167966 C150.17141,32.7285577 146.20131,37.9594281 143.340348,44.9083148 C141.951477,48.2814929 141.20599,51.6071812 140.719256,54.6542156 C139.664665,53.2784059 138.538743,51.8984059 137.31981,50.5079302 L136.934478,50.0686488 C134.148345,46.8882237 130.989468,43.2831832 127.135456,40.018254 C119.067278,33.1818067 109.435396,28.2505415 97.6901367,24.9416144 C93.0346921,23.6293573 88.0470655,22.6816549 82.4433285,22.043335 C81.6397975,21.9518472 80.8362665,21.8519787 80.0334349,21.7514119 C77.3969581,21.4224747 74.4094173,21.0509362 71.2715204,20.944084 C65.0006219,20.7317763 59.803196,20.7324747 54.916273,20.9475759 C53.740698,20.9985577 52.5651231,21.0586184 51.3909468,21.1186791 C47.796387,21.3016549 44.398339,21.47625 41.1786204,21.3889524 C41.0156764,21.3833654 40.5471248,21.3344787 40.2051521,21.2988613 C39.7254112,21.2485779 39.2456704,21.1996913 38.7645308,21.1598836 C38.623266,21.1487095 38.4820012,21.1298532 38.3400371,21.1137905 C37.3071256,20.9950658 35.5797788,20.7960273 33.5279424,20.9580516 C22.2966912,21.8463917 13.2158819,29.8756731 11.4451765,40.4868674 C10.0472144,48.8646407 11.4234973,57.6174443 15.3194687,65.1313209 C20.4546541,75.0385476 28.9466269,81.2415638 39.3813405,82.7766043 C39.424699,83.0105617 39.4680575,83.2438209 39.511416,83.4777783 C40.2086487,87.2259868 40.9296587,91.101999 41.7597643,94.9835982 C42.8220476,99.9455921 43.9437741,104.686898 45.0291353,109.271766 C45.8179804,112.605137 46.6334,116.050946 47.4145524,119.538659 C47.8691174,121.568851 48.3048004,123.603234 48.7404834,125.637616 C49.6985665,130.117728 50.6895181,134.750086 51.8993603,139.402697 C54.0512009,147.675015 56.5485109,156.012282 58.7514026,163.368325 C59.627664,166.294539 60.7395998,168.933021 61.7704133,171.310309 C55.5617552,172.882363 49.3195293,174.488639 42.9821944,176.125643 C42.4304224,176.268112 41.8786505,176.413376 41.3275779,176.558639 C38.0043583,177.435106 35.1119265,178.189357 32.9384067,178.109742 L32.3649555,178.088092 C30.5879561,178.021746 28.750115,177.951908 26.8171649,177.950511 C26.2583997,177.949813 25.6996344,177.947019 25.1415685,177.940035 C20.2504495,177.876483 15.5012947,179.278831 11.4011187,181.999023 C3.65393304,187.137009 -0.512679346,196.188021 0.527924755,205.624539 L0.634223024,206.591797 C1.70210102,216.272748 7.28136145,224.826513 15.582417,229.486108 C16.034884,229.738922 16.4964423,229.982657 16.9628958,230.213821 C24.8807182,234.140815 33.2293282,235.434914 41.7996261,234.068183 C41.7996261,234.071675 41.8003254,234.07377 41.8010248,234.077262 C42.4010505,237.781473 42.9465285,241.62955 43.4745232,245.350521 L43.7591508,247.349286 C44.0913329,249.688861 44.4759648,252.457242 44.7990555,255.259145 C44.956405,256.62378 45.0864805,257.99121 45.2172553,259.358639 C45.3627161,260.865046 45.5074776,262.372151 45.6802122,263.879256 C45.8816195,265.630795 46.111,267.379539 46.3410798,269.128284 C46.5061218,270.388861 46.6725625,271.649438 46.8257159,272.912809 C47.0564951,274.815197 47.2746863,276.718983 47.4928775,278.623467 C47.6600175,280.076797 47.8264582,281.530127 47.9984936,282.984853 C48.1264711,284.062454 48.2621412,285.139357 48.3985107,286.21626 C48.6320872,288.061382 48.853775,289.804539 49.0230131,291.508588 C49.1782645,293.065278 49.299948,294.658983 49.4286249,296.34627 C49.5496091,297.926007 49.6712926,299.505744 49.8188514,301.08129 C50.010468,303.119165 50.2230646,305.155643 50.4363604,307.191422 C50.651055,309.241169 50.8664488,311.291614 51.0559674,313.341361 C51.5972494,319.197981 53.6043286,324.33876 57.0240557,328.624023 C63.444611,336.665876 71.0491332,338.501918 76.6339883,338.50122 C77.0144242,338.50122 77.3857688,338.492839 77.7466234,338.477475 C77.9431354,338.472586 78.13685,338.478871 78.3312639,338.480967 C79.1459842,338.494236 80.2614167,338.508902 81.5733611,338.393669 C91.5744896,337.515805 97.3299814,332.37293 100.397246,328.214772 C102.216205,325.748092 103.637944,322.958062 104.658268,319.886584 C105.950631,323.03628 107.899666,325.856341 110.441733,328.214074 C111.599125,329.28539 112.899181,330.197475 114.287353,330.914712 C117.724563,332.695582 121.262477,333.595096 124.816476,333.595096 C125.174533,333.595096 125.53329,333.586017 125.892046,333.567859 C127.694222,333.476371 129.327159,333.243112 130.639803,333.055248 L131.241227,332.970046 L199.136449,325.375157 C202.427499,325.204054 205.529031,324.448406 208.394189,323.13126 C215.694502,333.685886 224.944549,335.458376 231.486089,335.052616 C238.238127,334.634985 244.163556,331.691311 248.622489,326.537961 C248.819,326.310288 249.009918,326.081918 249.194541,325.852151 C254.201749,332.990299 262.144048,337.080714 271.458434,337.080714 C271.540255,337.080714 271.622077,337.080015 271.703899,337.079317 C278.175505,337.029732 284.263878,334.406614 288.92212,329.689752 C290.695623,331.270187 292.595005,332.754246 294.629358,334.130754 C299.854757,337.66456 305.882289,340.004135 313.055324,341.283568 C315.975729,341.80456 318.778646,342.065056 321.489951,342.065056 C325.356551,342.065056 329.037129,341.534985 332.603016,340.469954 C333.970207,340.062799 335.201029,339.677293 336.364016,339.292485 C341.726484,337.516503 346.285421,335.304033 350.304475,332.526574 C351.060451,332.004185 351.794749,331.444084 352.518556,330.866523 C354.545916,334.276017 357.248829,337.097475 360.605616,339.256169 C365.810735,342.605602 371.520071,344.30127 377.583967,344.30127 C377.786074,344.30127 377.989579,344.30127 378.193084,344.296382 C387.064794,344.131564 395.009191,339.439145 399.446444,331.740197 C402.421397,326.579165 404.157136,320.755369 404.752966,313.938477 C404.83199,313.036867 404.913812,312.135258 404.996333,311.233649 L405.262778,308.287181 C405.359285,307.223548 405.455094,306.159216 405.532719,305.101169 C405.579574,304.459357 405.61524,303.816847 405.649507,303.173639 C405.67818,302.640774 405.704755,302.107212 405.750211,301.574347 C405.800563,300.968153 405.866999,300.361959 405.930638,299.756463 C406.025747,298.869519 406.118758,297.981878 406.19009,297.092839 L410.111937,252.950299 C410.259496,251.717657 410.42244,250.486412 410.586782,249.256564 C410.749027,248.031604 410.911272,246.806645 411.060229,245.582384 C411.188906,244.525734 411.303596,243.467687 411.417587,242.408244 C411.565845,241.030339 411.706411,239.728558 411.876348,238.494519 C411.995934,237.62294 412.12531,236.749965 412.261679,235.867212 C415.266703,235.99711 418.349353,235.786898 421.497041,235.237971 C432.017073,233.40542 440.776889,227.893801 446.830296,219.299529 C448.400993,217.070299 449.603142,214.414357 450.507377,211.173173 C453.114482,201.805795 451.16195,191.784732 445.283376,184.365137" id="Fill-16" fill="#23D7C5" mask="url(#mask-4)"></path>
                                        </g>
                                    </g>
                                    <g id="Group-50" transform="translate(24.476575, 14.264423)">
                                        <path d="M244.266637,43.6849615 C243.209949,43.6591215 242.142071,43.6081397 241.095872,43.7205789 C235.69564,44.3037267 231.910163,47.053251 230.203097,52.2687571 C229.531739,54.3192024 229.086965,56.4778968 228.838003,58.6226235 C228.40232,62.3806093 228.158953,66.1616417 227.909292,69.9377854 L226.8561,118.443808 C226.825329,119.447381 226.851904,120.453747 226.851904,121.458717 C226.807147,121.460113 226.762389,121.46151 226.718332,121.463605 C226.857498,125.139182 226.942117,128.817553 227.151917,132.488939 C227.374304,136.349587 229.026123,139.569121 231.903869,142.139162 C235.119392,145.010204 238.932143,146.709364 243.215543,146.355285 C248.849351,145.890164 253.246743,143.040771 255.957349,137.994972 C258.01478,134.162957 258.937896,129.944739 259.363789,125.655984 C259.638626,122.889698 259.557503,120.087796 259.637227,117.301955 C259.748421,113.456672 259.871503,109.611389 259.96801,105.766804 C260.128157,99.4101437 260.347048,93.0534838 260.391805,86.6961255 C260.41768,83.0205486 260.165921,79.3421781 260.005774,75.6666012 C259.940737,74.1664798 259.797374,72.6698502 259.667298,71.1732206 C259.349802,67.5102146 258.733692,63.8946984 257.990303,60.2945466 C256.963686,55.3241721 254.946117,50.877583 251.450162,47.1377551 C249.496932,45.047502 247.176552,43.7561964 244.266637,43.6849615" id="Fill-20" fill="#FEFEFE"></path>
                                        <path d="M323.461714,133.183339 C322.252572,129.663501 319.52728,126.805728 316.028528,125.525596 C314.363422,124.91591 312.601108,124.531102 310.85418,124.196578 C308.061053,123.660222 305.233659,123.301254 302.438435,122.774675 C299.981686,122.312347 299.153678,121.382803 299.283054,118.853268 C299.440404,115.746173 299.821539,112.648855 300.171204,109.553633 L303.009788,81.8321144 C303.135667,79.9436933 303.259449,78.0552723 303.389524,76.1668512 C303.424491,75.6682075 303.480437,75.1709605 303.520299,74.6716184 C303.924512,69.6740071 304.335719,64.6770941 304.729442,59.6794828 C304.965116,56.6806366 305.177014,53.6796953 305.390309,50.6794524 C305.480523,49.4028128 305.551156,48.1247763 305.624585,46.8467399 C305.744171,44.7900091 305.883338,42.7332783 305.969355,40.6751508 L307.169407,20.6707379 C307.284097,17.5999585 306.667987,14.649999 306.000126,11.70842 C305.398701,9.05736741 304.352503,6.60675 302.551027,4.53814676 C299.864198,1.45409818 296.436079,0.326213563 292.377164,0.407225709 C284.986637,0.555282389 279.117154,6.35393623 279.098971,13.7532783 L269.999979,123.407408 C269.835637,125.383127 269.609753,127.35256 269.405548,129.324786 C269.170573,131.597317 269.150992,133.867752 269.434221,136.18009 C270.255934,142.88175 275.121878,148.387084 281.662018,150.09672 C285.895067,151.202954 290.256793,151.848956 294.573062,152.619969 C298.638271,153.346284 302.737049,153.882641 306.80086,154.614544 C314.631965,156.025971 321.237143,151.543066 323.556823,145.161264 C324.998144,141.197256 324.827507,137.156426 323.461714,133.183339" id="Fill-22" fill="#FEFEFE"></path>
                                        <path d="M320.238919,82.8194848 C323.318072,89.4883209 328.270732,94.4146974 334.571002,98.0707196 C335.531883,98.6287257 336.509547,99.1587966 337.459238,99.7328654 C339.115953,100.735041 339.968437,102.656286 339.685208,104.569849 C339.081686,108.643503 338.55439,112.729029 337.914503,116.796398 C337.083698,122.074758 336.106733,127.33077 335.319986,132.615416 C334.814369,136.012339 334.172384,139.391803 334.901087,142.894181 C336.058479,148.456084 339.081686,152.281813 344.53087,154.06827 C349.969565,155.850537 354.769072,154.587167 358.972749,150.857116 C361.784758,148.362501 363.628194,145.189758 365.127559,141.783058 C366.526919,138.599141 367.432553,135.269961 368.147269,131.887703 C369.183677,126.979485 369.553623,121.979778 370.083016,117.00242 C370.218686,115.729971 370.351559,114.456124 370.529189,113.188564 C370.79983,111.263827 371.07187,109.337693 371.413143,107.424131 C371.707561,105.776651 372.867751,104.99656 374.427958,104.704637 C376.238525,104.36662 378.059582,104.073301 379.858261,103.682906 C383.664018,102.856722 387.161371,101.349616 390.387384,99.1231791 C395.084788,95.8805982 398.150654,91.3096974 400.952872,86.5250921 C406.233519,77.508999 408.226611,67.5556791 409.090285,57.3041508 L409.698702,49.6897075 C409.822484,48.1448897 409.951161,46.5986751 410.166554,45.0629362 C410.929524,39.6134727 410.424608,34.2799403 408.532219,29.0323087 C406.562903,23.5702743 401.605348,19.701246 395.326757,19.8486043 C388.676821,20.0057399 382.908042,24.3894747 381.532458,30.8802237 C380.934531,33.6967925 380.73662,36.6083411 380.508638,39.4884626 C380.335904,41.6660132 380.524024,43.8721974 380.470175,46.0602237 C380.45409,46.6845759 380.452692,47.3089281 380.47577,47.9332804 C380.728228,54.8339787 379.233758,61.387582 376.665816,67.7393532 C374.971338,71.9310334 372.32507,75.0953957 367.807394,76.4397783 C364.301649,77.4817621 360.89451,77.4112257 357.472685,76.0815091 C355.001949,75.1219342 352.988576,73.6371771 351.394801,71.5315597 C347.6345,66.5653755 346.880622,60.855416 347.806535,54.9799403 C348.750632,48.9906285 350.265382,43.0921063 351.476623,37.1433006 C352.208822,33.5494342 353.356424,30.0107399 353.0676,26.2660233 C352.592056,20.1021164 349.762563,16.271499 344.732977,14.4759626 C341.585989,13.3515698 338.322912,13.3103654 335.161238,14.1407399 C329.779888,15.5535638 325.986019,19.0838775 323.971946,24.1618026 C320.075975,33.9845253 317.36467,44.102663 316.669535,54.7417925 C316.303086,60.3421063 316.471624,65.8753755 317.106617,71.4142318 C317.560482,75.3628755 318.564022,79.1948897 320.238919,82.8194848" id="Fill-24" fill="#FEFEFE"></path>
                                        <path d="M184.991506,95.1427591 C184.686598,95.9570709 184.043213,96.5374251 183.04317,96.8000162 C181.213721,97.2818988 179.384972,97.8028907 177.524752,98.1325263 C175.652644,98.4656538 174.486859,97.6660081 174.157474,95.7692065 C173.797319,93.6950162 173.553952,91.582415 173.480522,89.4795911 L173.446169,68.6769291 C173.44066,67.3318482 173.707805,65.9930526 174.288949,64.7792672 C174.698756,63.9244494 175.244234,63.1157247 176.303021,63.0940749 C177.345723,63.0731235 177.915678,63.8064231 178.242265,64.6787004 C178.768162,66.0838421 179.311542,67.4938725 179.681488,68.9437105 L185.06074,93.3535081 C185.190815,93.9464332 185.204802,94.5749757 184.991506,95.1427591 M218.752395,138.936808 C218.48665,134.891089 217.925786,130.860036 217.372616,126.838761 C216.727833,122.155421 215.964863,117.488144 215.235461,112.816676 C215.040348,111.563781 214.843836,110.310188 214.645226,109.057294 C213.852884,104.035937 212.758432,99.0676579 211.368162,94.1782955 L200.414545,55.664004 C198.659925,49.4966053 196.479411,43.4528198 193.768106,37.6415951 C193.612156,37.3077692 193.455505,36.9746417 193.296757,36.6415142 C191.46521,32.7934372 188.797264,29.3818482 185.432084,26.7629211 C182.317965,24.3395405 178.884251,22.666919 174.755402,22.9525567 C173.698014,23.0251883 172.630836,22.9483664 171.569251,22.9790951 C167.901262,23.085249 164.535383,24.1398036 161.547842,26.2866255 C158.026712,28.8161599 155.797246,32.3199352 154.177596,36.2525162 C152.609697,40.0607854 152.234156,44.1225668 151.74882,48.1543178 C151.464193,50.5141457 151.229917,52.8795607 150.975361,55.2435789 C150.790038,56.9769595 150.655767,58.7145304 150.565553,60.4548947 L149.599078,118.372294 C149.689291,121.496848 149.616561,124.626291 149.616561,127.75364 L149.673207,127.75364 C149.673207,130.0995 149.582993,132.449551 149.693487,134.789824 C149.866921,138.459115 150.167634,142.123518 150.434778,145.787921 C150.471143,146.28447 150.638983,146.769146 150.727798,147.262901 C151.368385,150.833721 152.643964,154.111919 154.985323,156.952931 C157.31829,159.784166 160.353386,161.414186 163.915077,161.699824 C167.687267,162.002921 170.938455,160.511879 173.373525,157.577982 C175.542849,154.963245 176.597439,151.827516 176.778566,148.48367 L176.103012,127.602789 C176.130986,125.041828 176.806539,123.946767 179.285667,123.148518 C181.194839,122.532547 183.14807,122.032506 185.108294,121.600907 C187.770646,121.013569 189.090283,121.759439 189.577717,124.45449 C190.179141,127.785067 190.593844,131.161038 190.869381,134.535613 L192.469449,148.083498 C192.715614,150.166767 193.349907,152.208134 194.489816,153.970846 C196.41787,156.952233 199.343171,158.858113 203.35593,159.478275 C208.249147,160.233923 212.284985,158.6912 215.285813,154.747445 C216.962808,152.543356 218.140481,150.013123 218.468467,147.273377 C218.798551,144.518964 218.934921,141.700998 218.752395,138.936808" id="Fill-26" fill="#FEFEFE"></path>
                                        <path d="M211.409703,200.166486 C211.186616,198.609097 210.611067,197.166941 209.971179,195.770879 C208.929876,193.498348 207.482261,191.495393 205.917159,189.618844 C203.637341,186.886779 201.023243,184.559077 198.10074,182.639229 C196.327237,181.47433 194.535552,180.34435 192.621484,179.48604 C190.131866,178.368632 187.581407,177.436294 184.958218,176.758166 C182.767215,176.191779 180.59859,175.479431 178.385908,175.068085 C174.745192,174.389957 171.109372,173.637802 167.400821,173.507903 C164.604197,173.409431 161.810371,173.285119 159.015846,173.390575 C157.34934,173.453429 155.681437,173.504411 154.017729,173.595899 C153.29532,173.635706 152.573611,173.673419 151.851902,173.713925 C149.049684,173.871061 146.262851,174.213267 143.502592,174.726577 L134.174919,176.462751 C132.004197,176.866415 129.849559,177.359472 127.7166,177.941223 L126.482981,178.277144 C122.921989,179.247893 119.415545,180.437235 116.016098,181.912913 C114.904162,182.396192 113.804115,182.906709 112.725048,183.472397 C111.578845,184.073004 110.448027,184.706435 109.327,185.358723 C108.42766,185.88181 107.527622,186.404198 106.635276,186.941253 C104.426789,188.268176 101.0721,190.829138 99.2146777,192.670069 C95.8494983,196.006233 93.0200062,199.753045 91.1213233,204.228267 C90.4303846,205.857589 89.7331518,207.490403 89.3618072,209.252417 C88.9193366,211.362225 88.8184273,213.495079 89.0163379,215.671233 C89.2058565,217.744026 89.7702164,219.664573 90.7262015,221.46849 C91.9766048,223.830413 93.8626997,225.482781 96.0348209,226.77269 C97.3320794,227.541607 98.671997,228.227417 100.008418,228.915322 C102.016896,229.949623 103.899494,231.156425 105.391866,232.995261 C105.921259,233.64685 106.282114,234.361992 106.510795,235.163733 C107.235302,237.703045 107.458388,240.34013 107.894071,242.934613 L114.828634,298.122741 C115.164313,300.453237 116.160859,302.434543 117.854638,304.0052 C118.089614,304.222397 118.353261,304.405372 118.631595,304.549239 C120.040047,305.279047 121.535915,305.729502 123.084933,305.650585 C124.524855,305.577953 125.956385,305.341202 127.387215,305.143561 L195.966382,297.472549 C197.737787,297.42436 199.487513,297.029077 201.059608,296.176354 C202.041468,295.642791 202.928919,295.034502 203.519154,294.070038 C204.671651,292.187204 205.133909,290.111617 204.935998,287.854451 L199.336457,231.684401 C199.165121,229.531992 198.893781,227.380281 198.994484,225.22019 C199.032248,224.43102 199.099384,223.583186 199.397998,222.886901 C200.185445,221.05016 201.325354,219.476709 202.816327,218.208449 C204.303803,216.942285 205.787084,215.667741 207.22281,214.334532 C209.671166,212.059209 211.371939,209.299209 211.743283,205.730484 C211.859372,204.602599 211.853078,203.461445 211.725101,202.330767 L211.504112,200.370413 C211.471244,200.301972 211.420193,200.237721 211.409703,200.166486" id="Fill-28" fill="#FEFEFE"></path>
                                        <path d="M95.8063496,179.098439 C95.6007463,177.688409 95.251081,176.232285 94.6265786,174.963328 C91.9740173,169.56764 86.3269217,166.588348 80.0455333,167.256698 C77.5538179,167.522083 75.0509133,167.896415 72.6221378,168.497022 C63.1944604,170.828915 53.789861,173.251597 44.3866602,175.680565 C39.7493983,176.878287 35.1478022,178.277842 30.3196229,178.099755 C28.4482139,178.030615 26.576805,177.951698 24.703298,177.950302 C24.0878869,177.949603 23.4724759,177.94681 22.8570649,177.938429 C20.6534738,177.909097 18.6827599,178.578146 17.0407314,179.666921 C13.6154095,181.938753 11.8817687,186.043136 12.3321377,190.12517 L12.4391353,191.095919 C12.9999985,196.181526 15.8497711,200.822964 20.3163964,203.33015 C20.5674561,203.470524 20.8234112,203.606709 21.0849609,203.735909 C26.6005822,206.470767 32.4434903,207.310221 38.5185762,206.126466 C41.5305936,205.539128 44.5160364,204.817002 47.5280538,204.226172 C49.8701123,203.767336 50.8414827,204.425909 51.4499004,206.707518 C51.5072455,206.922619 51.5324214,207.146101 51.573682,207.366091 C52.2247589,210.869168 52.9401742,214.362468 53.5101287,217.878814 C54.2395306,222.381273 54.8647323,226.900494 55.5081166,231.416223 C55.9004411,234.169937 56.276681,236.927144 56.5955758,239.690636 C56.9270586,242.562377 57.1487464,245.447387 57.4774318,248.319826 C57.8208032,251.305403 58.2508916,254.280504 58.6124456,257.263986 C59.0215541,260.632974 59.3915,264.006152 59.7901185,267.375838 C60.1369865,270.304846 60.5509903,273.226172 60.8433106,276.15937 C61.1629047,279.371223 61.3447307,282.596344 61.6461422,285.810291 C62.0307741,289.906294 62.506319,293.994613 62.8853562,298.091314 C63.1538992,300.997275 64.0273633,303.650423 65.8617078,305.948794 C68.2163543,308.897356 71.1353607,310.725018 75.0642006,310.553915 C76.124386,310.50852 77.1957606,310.604897 78.2503513,310.512012 C81.7945594,310.201233 84.8751112,308.895261 87.0374417,305.96346 C88.7235281,303.67766 89.6277627,301.024512 90.091419,298.249148 C90.7501885,294.307488 90.1438688,290.353257 90.0508578,286.403915 C90.0452631,286.18602 89.9389649,285.971617 89.913789,285.751628 C89.5508363,282.546759 89.1745964,279.343287 88.8389177,276.135626 C88.4920496,272.817619 88.215814,269.49263 87.852162,266.177417 C87.5122873,263.080099 87.0689116,259.994654 86.7227429,256.898034 C86.4318214,254.300059 86.2758706,251.685322 85.9513812,249.090838 C85.3513554,244.284583 84.6751026,239.488804 84.022627,234.689532 C83.5813494,231.437174 83.1540583,228.182721 82.6701214,224.937346 C82.0456191,220.754047 81.3819543,216.577731 80.7161914,212.401415 C80.0763038,208.389219 79.3986524,204.384006 78.7615621,200.37181 C78.3671396,197.884877 78.9755573,196.911334 81.4330054,196.159877 C82.6589322,195.785545 83.9191261,195.517366 85.1695294,195.225443 C89.4032776,194.235838 92.6817399,191.925595 95.0049166,188.242336 C95.7783763,187.015281 96.1637076,185.714198 96.0979705,184.275534 C96.0196454,182.547741 96.0539126,180.801789 95.8063496,179.098439" id="Fill-30" fill="#FEFEFE"></path>
                                        <path d="M249.761558,235.855549 C248.387374,236.07903 247.006195,236.272482 245.620821,236.414951 C243.540312,236.629354 241.930453,235.487502 241.981504,233.307158 L244.163416,204.496864 L244.940372,202.723676 C245.26696,201.979202 245.850901,201.441449 246.753038,201.470083 C247.653776,201.498018 248.244011,202.055326 248.473391,202.834719 C249.084606,204.914496 249.707011,207.002654 250.130106,209.125731 C251.217565,214.576591 252.012704,220.072846 252.584057,225.607512 C252.80085,227.708939 253.17709,229.789415 253.126738,231.912492 C253.066595,234.494405 252.268659,235.449091 249.761558,235.855549 L249.761558,235.855549 Z M280.4377,254.882927 C280.340493,252.97984 280.223705,251.076753 280.027892,249.181348 C279.588713,244.914941 279.492205,240.626186 278.992184,236.369557 L277.848078,226.206024 C277.615201,224.136723 277.327776,222.073706 276.962726,220.023261 C276.283676,216.223372 275.546581,212.431864 274.741651,208.657117 C272.8101,199.600518 270.398108,190.664739 267.525258,181.860953 C266.060859,177.370366 263.995736,173.165417 260.766926,169.639294 C255.049897,163.392978 248.183169,160.539395 239.687699,162.685518 C232.978321,164.379091 228.59072,168.736986 226.068234,174.989587 C225.806684,175.636986 225.554925,176.289972 225.310159,176.945751 C223.559035,181.656328 222.310031,186.53731 221.455448,191.488828 C221.016968,194.030933 220.694577,196.591895 220.488274,199.163332 L214.222271,277.284182 C214.00408,280.001581 213.869808,282.72736 213.908971,285.453838 C213.948833,288.199172 214.153736,290.938919 214.772644,293.663302 C215.348893,296.201915 216.085288,298.638565 217.513321,300.801449 C220.107139,304.72984 223.398189,307.461206 228.522885,307.144142 C231.574764,306.955579 233.998644,305.68313 235.939287,303.439931 C237.415574,301.733787 238.3289,299.703595 239.117046,297.5882 C240.532491,293.787613 240.522001,289.815225 240.643685,285.872866 C240.796838,280.961156 240.715716,276.042462 240.807328,271.127957 C240.828308,270.030103 241.080766,268.921773 241.345113,267.846966 C241.657015,266.574516 242.506702,265.640083 243.73053,265.221753 C246.386588,264.313858 249.123069,263.743281 251.950464,263.901814 C253.222546,263.973049 254.189021,264.633018 254.560366,265.907563 C254.807929,266.756794 255.07857,267.639547 255.08906,268.510427 L255.205848,292.299364 C255.170881,295.252816 255.815664,298.068686 256.89613,300.773514 C259.110211,306.319354 263.555857,309.190397 269.500168,309.14485 C272.561838,309.121257 275.073134,307.829951 277.070423,305.71316 C280.407629,302.177259 282.048958,297.822158 282.392329,293.001237 L280.4377,254.882927 Z" id="Fill-32" fill="#FEFEFE"></path>
                                        <path d="M354.22751,261.534653 C352.93235,255.264592 350.207058,249.736212 346.298499,244.747679 C345.271182,243.436819 344.085117,242.227224 342.8487,241.107021 C339.345053,237.934977 335.29453,235.545118 331.150995,233.337537 C326.815145,231.027295 322.39048,228.885361 318.01197,226.656131 C315.247516,225.248195 312.772584,223.449865 310.710258,221.116576 C309.505311,219.751242 308.56611,217.538074 308.496177,215.662224 C308.435335,213.989602 308.426244,213.009076 308.495478,211.336454 C308.623455,208.270564 311.02216,205.608337 313.983126,205.246576 C315.976218,205.003539 317.858817,205.340857 319.599451,206.449187 C321.933817,207.935341 323.615008,209.969724 324.885692,212.382629 C325.457744,213.469309 325.97455,214.588114 326.603947,215.639876 C328.532701,218.857315 331.314639,220.81278 335.115501,221.133337 C336.560319,221.255554 338.015626,221.267426 339.467436,221.295361 C341.117157,221.327487 342.69205,220.962932 344.157847,220.210776 C347.66639,218.409653 350.725961,215.994653 351.414103,211.932173 C351.738592,210.012325 352.062382,206.097203 351.889648,204.157801 C351.480539,199.56944 348.958053,192.12191 345.292162,186.952497 C340.208028,179.784319 333.330809,175.569592 324.575189,174.438914 C321.175742,174.000331 317.793779,174.031758 314.383842,174.351616 C309.187815,174.838388 304.311382,176.272163 299.790209,178.878519 C294.553621,181.897618 290.463935,186.107456 287.080573,191.062467 C282.781087,197.358367 280.394971,204.275129 280.424761,211.925189 C280.433434,214.028013 280.753728,216.142011 281.07542,218.228074 C281.48313,220.865159 281.910421,223.511323 282.560798,226.094633 C283.493006,229.793954 285.283293,233.164339 286.974274,236.565452 C288.85967,240.359754 291.371666,243.694521 294.429839,246.599086 C298.381757,250.352882 302.891741,253.340554 307.670267,255.945513 C311.786528,258.190807 315.906285,260.4361 319.951214,262.805705 C321.427501,263.670999 322.88071,264.72695 324.018522,265.988226 C327.810992,270.19108 327.930578,274.693539 325.436065,279.297963 C323.191913,283.437963 318.009173,283.54691 315.382487,279.683469 C314.975476,279.084956 314.609726,278.455017 314.260061,277.819491 C312.966998,275.472932 311.757156,273.077487 310.391363,270.774228 C307.861185,266.508519 303.709958,264.752092 299.086682,264.71857 C294.848039,264.686444 291.012909,266.485473 288.129569,269.760878 C285.404976,272.857497 284.463677,276.451363 284.347588,280.818337 C284.281851,283.256384 284.6483,285.658813 285.362317,288.076606 C287.912776,296.706495 292.933971,303.567386 300.373451,308.597821 C304.303689,311.255159 308.714368,312.727345 313.417367,313.5661 C317.858817,314.358762 322.18138,314.409046 326.504642,313.118438 C327.628467,312.783914 328.748794,312.43612 329.862828,312.066677 C333.538511,310.8494 337.053347,309.280139 340.24719,307.073954 C343.937558,304.523469 346.760756,301.153782 349.161559,297.408367 C353.012773,291.400199 354.496753,284.519056 355.168809,277.693782 C355.343642,275.914309 355.175803,274.118772 355.196083,272.330918 C355.235945,268.699339 354.9695,265.124329 354.22751,261.534653" id="Fill-34" fill="#FEFEFE"></path>
                                        <path d="M432.217221,179.065057 C431.852171,178.604824 431.480826,178.194176 431.111579,177.866636 C429.828307,176.726879 428.290479,176.099733 426.57642,175.879045 C423.247605,175.451636 420.009704,175.914662 416.794881,176.761099 C413.412218,177.652931 410.028856,178.014692 406.536399,177.188508 C400.017937,175.647182 393.468006,174.239247 386.925767,172.794996 C380.935999,171.47366 375.018962,169.79196 368.846669,169.391787 C363.430353,169.040502 358.970022,170.720806 355.647501,175.12619 C353.352997,178.169034 352.886544,181.631605 353.197746,185.291119 C353.641821,190.512213 356.2762,194.163346 361.138646,196.113225 C362.682069,196.73199 364.347175,197.047658 365.954937,197.510684 C367.025612,197.819368 368.129855,198.053326 369.150878,198.482132 C370.510377,199.052709 371.067744,200.157547 370.877526,201.591322 C370.090079,207.548508 369.302633,213.506393 368.492808,219.461484 C367.862711,224.093144 367.178066,228.71782 366.556361,233.350877 L362.458283,266.141241 C361.910707,269.82869 361.347047,273.514045 360.860313,277.209874 C360.481975,280.076727 360.198746,282.95615 359.895236,285.832779 C359.737887,287.32452 359.583335,288.819055 359.513402,290.317081 C359.449063,291.711049 359.500114,293.109905 359.500114,294.506666 C359.500114,295.902729 359.553963,297.302283 359.489624,298.695553 C359.32738,302.197931 360.355396,305.413275 361.785527,308.535735 C362.736617,310.611322 364.131082,312.291626 366.083614,313.546615 C369.063462,315.465067 372.253109,316.42953 375.83648,316.363184 C379.745039,316.290553 383.276659,314.188427 385.226393,310.80617 C387.378933,307.070532 388.349604,303.005957 388.721648,298.755613 C388.862214,297.146545 389.013968,295.537476 389.157331,293.929105 C389.270623,292.654561 389.392306,291.381413 389.485317,290.10617 C389.575531,288.885401 389.611197,287.660441 389.713998,286.441069 C389.839179,284.942344 390.037089,283.449905 390.155276,281.950482 L394.100201,237.54116 C394.400213,235.000451 394.768761,232.467425 395.078564,229.926717 C395.374381,227.495654 395.587677,225.052719 395.921957,222.626545 C396.300994,219.870036 396.761853,217.124004 397.211523,214.377972 C397.535313,212.400158 397.826235,210.412567 398.264016,208.459196 C398.733267,206.369642 399.685056,205.807445 401.802629,206.228569 C403.005478,206.467415 404.199935,206.767719 405.381104,207.099449 C409.221829,208.178447 413.094023,208.19032 416.99489,207.510796 C423.822455,206.321453 429.298215,202.967132 433.292792,197.295583 C433.992822,196.301787 434.52711,194.921089 434.933422,193.464267 C436.315998,188.497385 435.420855,183.107982 432.217221,179.065057" id="Fill-36" fill="#FEFEFE"></path>
                                        <path d="M108.849147,112.087357 C106.640661,117.510981 102.684547,121.799736 96.8877946,124.94175 C96.5940757,125.101679 96.2961608,125.267894 95.9807626,125.370556 C94.6142704,125.812631 93.6995459,125.426426 93.1386826,124.088329 C92.8169905,123.321507 92.5771201,122.50929 92.4008887,121.696376 L83.1032869,72.8167196 C82.6711005,70.516254 82.3039519,68.2046144 81.9871551,65.8866893 C81.7857478,64.4082176 81.5612627,62.9325395 81.3626527,61.4540678 C81.3178956,61.122337 81.2703411,60.7892095 81.2612498,60.4553836 C81.2074013,58.637499 81.9340059,57.789665 83.7690497,57.9600698 C85.7040978,58.1409504 87.6419432,58.4964261 89.5280381,58.9741184 C90.991038,59.3449585 92.4050847,59.830333 93.7757729,60.4092905 C100.259967,63.1497358 106.685418,70.9178229 107.743505,77.8681063 C107.752597,77.9253735 107.760988,77.9833391 107.76938,78.0406063 C108.314159,81.7825294 108.745646,84.842833 109.220492,88.5952318 L110.450614,99.4620334 C110.933852,103.737519 110.472294,108.101699 108.849147,112.087357 M139.995938,93.2967298 C139.607111,89.8132075 139.172826,86.3352723 138.738542,82.857337 C138.421745,80.3180253 138.048302,77.784999 137.741995,75.2435921 C136.996509,69.0503532 135.361474,63.1106265 132.68024,57.4705051 C130.627005,53.1503229 127.847165,49.3336731 124.698778,45.7419018 C121.934324,42.5887136 119.20064,39.4222561 115.988614,36.7013654 C108.889009,30.6848168 100.659984,26.9142601 91.7931703,24.4168512 C87.531449,23.2156366 83.158534,22.4544018 78.7583452,21.9529646 C75.4092504,21.5716488 72.0594563,21.0506569 68.6984729,20.9354241 C63.6136392,20.7629241 58.5120217,20.7098472 53.4320834,20.9340273 C48.5206838,21.1491285 43.6183755,21.5157783 38.6978846,21.3837844 C37.6411959,21.3551508 36.5880038,21.2001103 35.5320145,21.1142095 C34.5319715,21.0331974 33.5214387,20.8369524 32.5332844,20.9144727 C27.4519474,21.3160415 23.828715,24.7094727 23.1433709,28.8138553 C22.2482276,34.1823067 23.1503642,39.9355658 25.6427789,44.7425192 C28.7988584,50.8323978 33.602561,54.5456872 40.5944695,55.1372156 C42.3714688,55.2880658 44.1463702,55.4759302 45.9205722,55.6651913 C47.6416251,55.8488654 49.0682597,57.0780152 49.5004461,58.7520334 C49.724232,59.6173269 49.9424231,60.4861123 50.1116612,61.3639767 C51.1879311,66.9412439 52.1516089,72.5436528 53.3397717,78.0971751 C55.1349537,86.4882176 57.0888837,94.1473573 58.9658873,102.52094 C60.4155999,108.990039 61.6701992,115.51012 63.3388023,121.922651 C65.3878413,129.79759 67.7187105,137.601295 70.0530765,145.398714 C70.8181443,147.952691 71.9077015,150.42007 72.9748802,152.871386 C73.7385493,154.625019 74.8910463,156.153076 76.4477565,157.318673 C79.0310841,159.252489 81.7249061,160.910444 85.1530252,160.681376 C87.5545269,160.521446 89.9098727,160.16178 92.234448,159.491335 C97.8521716,157.872489 103.064283,155.338066 108.179188,152.578764 C115.324949,148.726497 121.755995,143.944685 127.064614,137.767509 C130.834007,133.380981 133.885187,128.532823 136.185285,123.206274 C136.213259,123.140627 136.241931,123.07428 136.269904,123.009331 C139.914816,114.491882 141.222564,105.16012 140.278468,95.9456872 C140.189653,95.0796953 140.095943,94.1878634 139.995938,93.2967298" id="Fill-38" fill="#FEFEFE"></path>
                                        <path d="M262.085864,24.2325486 C263.75097,15.1452206 261.549477,7.32475506 249.919607,4.19181984 C239.819873,1.47023077 230.625073,9.09375304 228.960666,18.1803826 C227.295559,27.2677105 233.361554,35.9883887 242.5088,37.6596134 C251.656745,39.3308381 260.421456,33.3191781 262.085864,24.2325486" id="Fill-40" fill="#FEFEFE"></path>
                                        <path d="M417.437006,145.394104 C419.382544,142.576139 421.997342,140.512424 424.978589,138.915228 C426.397531,138.15539 427.888504,137.481452 429.417241,136.98211 C432.036234,136.127293 434.617464,136.50372 437.073513,137.582718 C438.76939,138.329286 440.091125,139.724651 440.879971,141.398669 C440.883467,141.405653 440.886265,141.411938 440.889761,141.41962 C442.105897,144.025977 441.547132,147.120501 439.521171,149.164661 L438.281957,150.415461 C435.340572,153.530936 431.841121,155.747596 427.814375,157.105946 C423.640769,158.511786 419.00071,156.878274 416.943978,152.988295 C415.557205,150.365876 415.759312,147.82377 417.437006,145.394104" id="Fill-42" fill="#F5ABF9"></path>
                                        <path d="M396.26379,128.480235 C396.318338,128.318909 396.38967,128.147806 396.458204,127.978798 C396.791085,127.096743 397.21488,126.271955 397.726091,125.519101 C398.456192,124.297634 399.337348,122.995852 400.224799,121.696864 L418.411594,98.6768441 C422.896402,93.1100526 431.051297,92.227998 436.625662,96.7067126 C442.200727,101.185427 443.083981,109.329243 438.598474,114.896733 L429.191777,126.227259 C428.149774,127.525549 427.088889,128.809172 426.000731,130.069749 L425.928699,130.157047 L425.925203,130.154951 C423.353064,133.131449 420.655746,136.005984 417.826953,138.773666 C417.233221,139.354719 416.295419,140.404385 415.63595,140.940043 C414.20442,142.38569 412.667991,143.318028 410.718256,143.87813 C410.337121,144.016409 409.961581,144.079962 409.582543,144.111389 C408.648238,144.187512 407.707638,144.103706 406.786619,143.928413 L405.358586,143.657441 C403.741733,143.350154 402.165442,142.80402 400.780767,141.917077 C397.165927,139.602644 395.035765,135.715457 395.789644,130.676642 C395.867969,130.063464 395.980561,129.44819 396.160289,128.835711 C396.175674,128.782634 396.197354,128.73235 396.214138,128.679273 C396.233019,128.612229 396.244209,128.547978 396.26379,128.480235" id="Fill-44" fill="#F5ABF9"></path>
                                        <path d="M23.8476668,148.703939 C22.3294199,145.633858 20.0426084,143.214668 17.3229113,141.20403 C16.0284501,140.247249 14.651468,139.364496 13.2108467,138.650053 C10.7436079,137.42649 8.13440505,137.425791 5.54828008,138.139536 C3.76218944,138.632593 2.25233443,139.821935 1.22851426,141.365356 C1.22431828,141.370943 1.22082163,141.377229 1.21662564,141.384213 C-0.364561101,143.788038 -0.258962163,146.930053 1.44950277,149.245184 L2.49430285,150.662897 C4.95314964,154.170164 8.09524253,156.868706 11.883517,158.793443 C15.8095596,160.788717 20.6363402,159.841713 23.2350531,156.289749 C24.9875759,153.895002 25.1554153,151.349405 23.8476668,148.703939" id="Fill-46" fill="#F5ABF9"></path>
                                        <path d="M47.2472725,135.025457 C47.216502,134.857846 47.1710455,134.678362 47.1269876,134.500974 C46.9255804,133.580508 46.6255675,132.702644 46.229047,131.884142 C45.683569,130.569789 45.0003229,129.155569 44.3100835,127.74065 L29.6479158,102.337057 C26.0162914,96.180832 18.0746918,94.1303866 11.9107909,97.7570769 L11.9100916,97.7570769 C5.74549134,101.383767 3.69225637,109.314577 7.32388076,115.470802 L14.992042,128.040953 C15.8347355,129.476126 16.6977096,130.899425 17.5921536,132.304567 L17.6508974,132.400245 L17.6550934,132.399547 C19.7691701,135.715457 22.0224137,138.949658 24.4197194,142.097259 C24.9225382,142.757229 25.6994946,143.931206 26.2743444,144.556257 C27.4806899,146.19396 28.8667634,147.338605 30.7143951,148.173868 C31.0717531,148.366621 31.4347058,148.483251 31.8046517,148.568453 C32.7186769,148.778666 33.6613747,148.832441 34.5977786,148.791935 L36.0502885,148.729779 C37.694415,148.659243 39.3329468,148.346368 40.8316125,147.668939 C44.7436686,145.90064 47.4137132,142.361945 47.3983279,137.267259 C47.4095172,136.648494 47.3871386,136.024142 47.2983236,135.391409 C47.290631,135.336935 47.2759451,135.284557 47.2675531,135.230083 C47.2591611,135.160943 47.2570631,135.095296 47.2472725,135.025457" id="Fill-48" fill="#F5ABF9"></path>
                                    </g>
                                </g>
                            </g>
                        </g>
                    </g>
                </g>
            </g>
        </g>
    </g>
</svg>