<?xml version="1.0" encoding="UTF-8"?>
<svg width="143px" height="17px" viewBox="0 0 143 17" version="1.1" xmlns="http://www.w3.org/2000/svg" xmlns:xlink="http://www.w3.org/1999/xlink">
    <!-- Generator: sketchtool 63.1 (101010) - https://sketch.com -->
    <title>55347FDA-9426-4555-99F9-9F75CE9215B1</title>
    <desc>Created with sketchtool.</desc>
    <g id="Page-1" stroke="none" stroke-width="1" fill="none" fill-rule="evenodd">
        <g id="04_ABOUT" transform="translate(-250.000000, -257.000000)" fill="#CE81D9">
            <g id="bt_failfast" transform="translate(250.000000, 257.000000)">
                <path d="M118.617812,-7.04621546e-14 C121.090396,-7.04621546e-14 122.992355,1.25162704 123.705015,1.77098383 C123.990806,1.93618187 123.943525,2.36143851 123.848006,2.52644645 L122.635738,4.3443853 C122.469201,4.6042538 122.041376,4.81697717 121.827558,4.65158902 C121.612976,4.53334601 119.877362,3.23495404 118.42754,3.23495404 C117.571314,3.23495404 116.929671,3.80145595 116.929671,4.43924586 C116.929671,5.31276139 117.643097,5.97374365 119.520745,6.72939637 C121.375422,7.46128643 124.323879,8.90149397 124.323879,12.1126853 C124.323879,14.5444613 122.207912,17 118.712566,17 C115.622075,17 113.910198,15.7251806 113.363308,15.1820611 C113.125755,14.9459553 113.053972,14.851475 113.244244,14.5208888 L114.36176,12.5613244 C114.551841,12.2541207 115.003977,12.301456 115.170513,12.4195089 C115.265458,12.4664639 116.977144,13.7180909 118.54603,13.7180909 C119.497009,13.7180909 120.18689,13.1280165 120.18689,12.301456 C120.18689,11.3096974 119.354974,10.5542348 117.738042,9.91682508 C115.693092,9.11402724 113.125755,7.53200412 113.125755,4.69873415 C113.125755,2.36143851 114.95593,-7.04621546e-14 118.617812,-7.04621546e-14 Z M99.1737534,0.0780175788 C99.3402896,0.0780175788 99.5068258,0.196260595 99.577843,0.337695972 L99.577843,0.337695972 L107.019331,16.2282647 C107.162131,16.5350882 106.97205,16.8421018 106.615242,16.8421018 L106.615242,16.8421018 L103.976313,16.8421018 C103.548296,16.8421018 103.358215,16.7000962 103.144206,16.2518373 L103.144206,16.2518373 L99.0554553,7.27962561 L99.0311448,7.27962561 L94.9655558,16.2754098 C94.846492,16.5586608 94.5852024,16.8421018 94.1100957,16.8421018 L94.1100957,16.8421018 L91.4945202,16.8421018 C91.137903,16.8421018 90.947822,16.5350882 91.090622,16.2282647 L91.090622,16.2282647 L98.5321105,0.337695972 C98.6031277,0.196260595 98.7696639,0.0780175788 98.9360086,0.0780175788 L98.9360086,0.0780175788 Z M10.2950002,0.236390982 C10.5562897,0.236390982 10.7467536,0.448734149 10.7467536,0.685030081 L10.7467536,3.25862165 C10.7467536,3.49491759 10.5562897,3.70726075 10.2950002,3.70726075 L3.70916326,3.70726075 L3.70916326,7.10722273 L9.12943816,7.10722273 C9.36775721,7.10722273 9.58176581,7.319756 9.58176581,7.55567173 L9.58176581,10.1294534 C9.58176581,10.3653691 9.36775721,10.5779024 9.12943816,10.5779024 L3.70916326,10.5779024 L3.70916326,16.3155402 C3.70916326,16.5516461 3.49534609,16.7641793 3.25779272,16.7641793 L0.452136224,16.7641793 C0.190080978,16.7641793 -3.05758945e-13,16.5516461 -3.05758945e-13,16.3155402 L-3.05758945e-13,0.685030081 C-3.05758945e-13,0.448734149 0.190080978,0.236390982 0.452136224,0.236390982 L10.2950002,0.236390982 Z M44.9161352,0.236390982 C45.1536885,0.236390982 45.3676971,0.448734149 45.3676971,0.685030081 L45.3676971,16.3155402 C45.3676971,16.5516461 45.1536885,16.7641793 44.9161352,16.7641793 L42.0630063,16.7641793 C41.8254529,16.7641793 41.6110615,16.5516461 41.6110615,16.3155402 L41.6110615,0.685030081 C41.6110615,0.448734149 41.8254529,0.236390982 42.0630063,0.236390982 L44.9161352,0.236390982 Z M59.5931049,0.236390982 C59.8306582,0.236390982 60.0452411,0.448734149 60.0452411,0.685030081 L60.0452411,13.2933096 L66.4689445,13.2933096 C66.7308083,13.2933096 66.9208893,13.5058428 66.9208893,13.7419487 L66.9208893,16.3155402 C66.9208893,16.5516461 66.7308083,16.7641793 66.4689445,16.7641793 L56.7637122,16.7641793 C56.5024226,16.7641793 56.3121502,16.5516461 56.3121502,16.3155402 L56.3121502,0.685030081 C56.3121502,0.448734149 56.5024226,0.236390982 56.7637122,0.236390982 L59.5931049,0.236390982 Z M85.5304184,0.236238901 C85.791708,0.236238901 85.9821718,0.448772169 85.9821718,0.684878 L85.9821718,3.25846957 C85.9821718,3.4945754 85.791708,3.70710867 85.5304184,3.70710867 L78.9445815,3.70710867 L78.9445815,7.10707065 L84.3648564,7.10707065 C84.6031755,7.10707065 84.8171841,7.31941382 84.8171841,7.55551965 L84.8171841,10.1294914 C84.8171841,10.3654072 84.6031755,10.5777503 84.3648564,10.5777503 L78.9445815,10.5777503 L78.9445815,16.3153881 C78.9445815,16.551494 78.7307644,16.7640272 78.493211,16.7640272 L75.6875545,16.7640272 C75.4254992,16.7640272 75.2354183,16.551494 75.2354183,16.3153881 L75.2354183,0.684878 C75.2354183,0.448772169 75.4254992,0.236238901 75.6875545,0.236238901 L85.5304184,0.236238901 Z M141.747318,0.236143851 C142.008607,0.236143851 142.19888,0.448677119 142.19888,0.68497305 L142.19888,3.25856462 C142.19888,3.49467045 142.008607,3.70720372 141.747318,3.70720372 L138.347491,3.70720372 L138.347491,16.3152931 C138.347491,16.5513989 138.133673,16.7641223 137.89612,16.7641223 L135.042991,16.7641223 C134.804672,16.7641223 134.590855,16.5513989 134.590855,16.3152931 L134.590855,3.70720372 L131.190836,3.70720372 C130.929738,3.70720372 130.739466,3.49467045 130.739466,3.25856462 L130.739466,0.68497305 C130.739466,0.448677119 130.929738,0.236143851 131.190836,0.236143851 L141.747318,0.236143851 Z M23.9383352,-1.05989291e-13 C24.1048714,-1.05989291e-13 24.2714076,0.118433118 24.3424247,0.259868495 L24.3424247,0.259868495 L31.7839132,16.1504372 C31.9267132,16.4572608 31.7366322,16.7640843 31.3798236,16.7640843 L31.3798236,16.7640843 L28.7408947,16.7640843 C28.3128776,16.7640843 28.1227966,16.6222687 27.908788,16.1740098 L27.908788,16.1740098 L23.820037,7.20179813 L23.7957266,7.20179813 L19.7301376,16.1975824 C19.6110737,16.4808333 19.3497842,16.7640843 18.8746774,16.7640843 L18.8746774,16.7640843 L16.2591019,16.7640843 C15.9024847,16.7640843 15.7124038,16.4572608 15.8552038,16.1504372 L15.8552038,16.1504372 L23.2966922,0.259868495 C23.3677094,0.118433118 23.5342456,-1.05989291e-13 23.7005904,-1.05989291e-13 L23.7005904,-1.05989291e-13 Z" id="Combined-Shape"></path>
            </g>
        </g>
    </g>
</svg>